<?xml version="1.0" standalone="no"?>
<!DOCTYPE svg PUBLIC "-//W3C//DTD SVG 20010904//EN"
 "http://www.w3.org/TR/2001/REC-SVG-20010904/DTD/svg10.dtd">
<svg version="1.0" xmlns="http://www.w3.org/2000/svg"
 width="525.000000pt" height="256.000000pt" viewBox="0 0 525.000000 256.000000"
 preserveAspectRatio="xMidYMid meet">

<g transform="translate(0.000000,256.000000) scale(0.100000,-0.100000)"
fill="#000000" stroke="none">
<path d="M0 1280 l0 -1280 2625 0 2625 0 0 1280 0 1280 -2625 0 -2625 0 0
-1280z m2380 1114 c44 -18 46 -22 27 -48 -12 -16 -15 -16 -42 -2 -40 21 -73
20 -112 -4 -67 -41 -87 -123 -43 -182 20 -27 21 -32 7 -46 -19 -19 -39 -6 -64
42 -41 79 -6 184 76 230 53 30 95 32 151 10z m607 -262 c45 -31 82 -60 83 -63
0 -3 -115 -79 -255 -169 -141 -90 -258 -167 -260 -170 -3 -4 40 -56 95 -116
55 -60 99 -112 100 -115 0 -4 -31 -29 -68 -56 -67 -49 -68 -49 -84 -29 -15 20
-13 23 33 55 l49 33 -63 70 c-34 38 -81 91 -105 118 l-43 49 68 43 c37 24 152
97 256 163 103 66 187 122 187 126 0 3 -20 20 -45 37 l-46 32 -227 0 -227 0
-79 -140 c-43 -77 -82 -142 -86 -145 -5 -3 -29 -1 -54 5 -86 19 -195 -21 -250
-92 -36 -48 -48 -85 -48 -155 -1 -226 272 -335 429 -171 90 94 95 245 11 335
-21 22 -21 23 -3 43 17 19 18 19 51 -23 120 -151 64 -372 -115 -456 -219 -102
-469 92 -421 326 17 79 41 124 91 167 71 60 119 78 210 78 l79 0 78 138 77
139 250 1 250 0 82 -58z m251 -256 c55 -28 112 -91 138 -152 25 -59 23 -167
-5 -229 -72 -161 -263 -227 -419 -146 -154 80 -206 277 -112 424 29 46 93 100
140 119 78 31 177 25 258 -16z m-1828 -406 c0 -5 -13 -10 -30 -10 -23 0 -30
-4 -30 -20 0 -15 7 -20 25 -20 14 0 25 -4 25 -10 0 -5 -11 -10 -25 -10 -18 0
-25 -5 -25 -20 0 -16 7 -20 30 -20 17 0 30 -4 30 -10 0 -5 -18 -10 -40 -10
l-40 0 0 70 0 70 40 0 c22 0 40 -4 40 -10z m84 4 c9 -3 16 -15 16 -25 0 -23
-15 -25 -24 -4 -7 19 -36 20 -36 1 0 -8 12 -21 28 -28 20 -10 27 -20 27 -43 0
-27 -3 -30 -34 -30 -21 0 -38 6 -45 17 -14 23 2 37 18 15 7 -9 21 -17 30 -17
25 0 19 28 -11 42 -69 34 -40 99 31 72z m126 -4 c0 -5 -7 -10 -15 -10 -12 0
-15 -13 -15 -60 0 -47 -3 -60 -15 -60 -12 0 -15 13 -15 60 0 53 -2 60 -20 60
-11 0 -20 5 -20 10 0 6 23 10 50 10 28 0 50 -4 50 -10z m2018 -2 c17 -17 15
-31 -13 -72 l-24 -36 24 0 c14 0 25 -4 25 -10 0 -5 -18 -10 -40 -10 -47 0 -50
11 -15 52 28 33 33 68 10 68 -8 0 -15 -7 -15 -15 0 -8 -4 -15 -8 -15 -17 0
-21 13 -11 31 11 21 49 25 67 7z m100 0 c17 -17 15 -103 -2 -118 -8 -6 -25
-10 -38 -8 -20 3 -23 9 -26 57 -2 29 -1 60 2 67 7 17 48 18 64 2z m100 -21 c2
-16 -5 -39 -18 -57 l-21 -30 25 0 c14 0 26 -4 26 -10 0 -5 -20 -10 -45 -10
-25 0 -45 3 -45 8 1 4 14 23 30 42 17 19 30 42 30 52 0 22 -26 24 -34 3 -7
-18 -26 -20 -26 -2 0 22 23 38 50 35 19 -2 26 -10 28 -31z m106 -4 c13 -48 -3
-97 -34 -101 -30 -5 -50 21 -50 66 0 50 16 74 48 70 20 -2 29 -11 36 -35z
m-2284 -93 c0 -5 -7 -10 -15 -10 -8 0 -15 5 -15 10 0 6 7 10 15 10 8 0 15 -4
15 -10z m2910 -235 l0 -25 -1905 0 -1905 0 0 25 0 25 1905 0 1905 0 0 -25z
m-3909 -194 c17 -17 29 -40 29 -55 0 -24 -4 -26 -40 -26 -29 0 -40 4 -40 15 0
13 -20 15 -120 15 l-120 0 0 -120 0 -120 120 0 120 0 0 35 c0 35 0 35 -46 35
l-45 0 3 38 3 37 80 0 80 0 3 -83 c3 -80 2 -84 -27 -112 l-29 -30 -144 0
c-197 1 -198 2 -198 205 l0 137 29 29 29 29 142 0 142 0 29 -29z m446 5 c28
-24 28 -24 31 -170 l3 -146 -29 -30 -30 -30 -145 0 c-139 0 -145 1 -171 25
-26 24 -26 25 -26 172 1 203 0 202 202 203 130 0 138 -1 165 -24z m454 -5 c26
-27 29 -36 29 -98 0 -81 -15 -114 -55 -127 -17 -6 -32 -11 -34 -12 -2 -2 18
-28 43 -59 25 -31 44 -61 40 -66 -3 -5 -22 -9 -43 -9 -34 0 -42 6 -95 70 l-57
70 -60 0 -59 0 0 -71 0 -70 -37 3 -38 3 -3 185 c-1 101 0 190 2 197 4 10 46
13 171 13 l167 0 29 -29z m157 -133 l3 -158 119 0 120 0 0 161 0 160 38 -3 37
-3 0 -173 0 -174 -28 -24 c-27 -23 -34 -24 -173 -24 -141 0 -146 1 -169 25
-25 24 -25 27 -25 200 l0 176 38 -3 37 -3 3 -157z m736 141 l26 -20 0 -159 0
-159 -26 -20 c-25 -19 -40 -21 -195 -21 l-169 0 0 200 0 200 169 0 c155 0 170
-2 195 -21z m453 -3 l28 -24 0 -152 0 -152 -28 -24 c-27 -23 -34 -24 -173 -24
-141 0 -146 1 -169 25 -24 23 -25 28 -25 173 0 202 -1 201 202 202 130 0 138
-1 165 -24z m604 -6 c28 -28 30 -35 28 -95 -1 -36 1 -68 4 -72 4 -3 7 -40 7
-80 0 -65 -3 -77 -25 -98 -24 -25 -27 -25 -195 -25 l-170 0 0 200 0 200 161 0
161 0 29 -30z m169 -171 l0 -200 -37 3 -38 3 -3 185 c-1 101 0 190 2 197 3 7
21 13 41 13 l35 0 0 -201z m128 119 l3 -78 42 0 c40 1 45 4 106 80 60 74 68
80 102 80 21 0 41 -5 44 -10 4 -6 -25 -48 -64 -95 -39 -46 -71 -89 -71 -95 0
-6 32 -50 70 -97 39 -46 68 -89 65 -94 -4 -5 -23 -9 -44 -9 -34 0 -42 6 -102
80 -61 76 -66 79 -106 80 l-42 0 -3 -77 -3 -78 -40 0 -40 0 -3 185 c-1 101 0
190 3 198 3 9 18 12 42 10 l38 -3 3 -77z m712 42 l0 -40 -140 0 -140 0 0 -40
0 -39 113 -3 112 -3 0 -35 0 -35 -112 -3 -113 -3 0 -39 0 -40 140 0 140 0 0
-40 0 -40 -180 0 -180 0 0 200 0 200 180 0 180 0 0 -40z m414 18 c15 -13 29
-38 32 -55 6 -33 6 -33 -35 -33 -30 0 -41 4 -41 15 0 13 -20 15 -120 15 l-120
0 0 -40 0 -40 129 0 c123 0 131 -1 158 -24 26 -22 28 -30 28 -96 0 -66 -2 -74
-28 -96 -27 -23 -34 -24 -173 -24 -141 0 -146 1 -169 25 -16 15 -25 36 -25 55
0 28 2 30 40 30 29 0 40 -4 40 -15 0 -12 20 -15 120 -15 l120 0 0 40 0 40
-135 0 c-131 0 -137 1 -160 25 -22 21 -25 33 -25 93 0 111 17 121 202 122 128
0 139 -1 162 -22z m-2210 -477 c46 17 64 19 83 10 33 -15 47 -56 31 -89 -18
-37 -53 -42 -120 -18 l-56 20 -57 -23 c-46 -19 -61 -21 -81 -12 -35 16 -48 55
-29 91 19 36 46 40 115 18 54 -19 56 -18 114 3z m-364 -46 l0 -25 -800 0 -800
0 0 25 0 25 800 0 800 0 0 -25z m2210 0 l0 -25 -800 0 -800 0 0 25 0 25 800 0
800 0 0 -25z"/>
<path d="M3015 1854 c-35 -9 -98 -58 -127 -99 -16 -22 -33 -65 -40 -95 -22
-108 40 -228 141 -273 64 -28 155 -26 216 4 90 45 137 123 137 226 1 85 -29
142 -99 195 -51 39 -58 42 -131 44 -42 1 -86 0 -97 -2z"/>
<path d="M3694 1446 c-9 -23 0 -79 14 -84 8 -2 12 11 12 47 0 48 -14 68 -26
37z"/>
<path d="M3890 1410 c0 -38 4 -50 15 -50 11 0 15 12 15 50 0 38 -4 50 -15 50
-11 0 -15 -12 -15 -50z"/>
<path d="M820 750 l0 -120 120 0 120 0 0 120 0 120 -120 0 -120 0 0 -120z"/>
<path d="M1270 815 l0 -56 118 3 117 3 3 53 3 52 -120 0 -121 0 0 -55z"/>
<path d="M2170 750 l0 -120 115 0 115 0 0 120 0 120 -115 0 -115 0 0 -120z"/>
<path d="M2620 750 l0 -120 120 0 120 0 0 120 0 120 -120 0 -120 0 0 -120z"/>
<path d="M3240 830 l0 -41 108 3 107 3 3 38 3 37 -110 0 -111 0 0 -40z"/>
<path d="M3240 670 l0 -40 115 0 115 0 0 40 0 40 -115 0 -115 0 0 -40z"/>
<path d="M2534 440 c-46 -17 -33 -80 16 -80 37 0 52 14 48 45 -3 32 -32 47
-64 35z"/>
<path d="M2754 440 c-41 -16 -40 -66 1 -76 43 -11 67 4 63 38 -3 35 -30 50
-64 38z"/>
</g>
</svg>
